<svg xmlns="http://www.w3.org/2000/svg" version="1.1" xmlns:xlink="http://www.w3.org/1999/xlink" width="116" height="113"><svg width="116" height="113" viewBox="0 0 116 113" fill="none" xmlns="http://www.w3.org/2000/svg">
<path d="M31.4506 107.251C32.5006 107.701 33.5606 108.161 34.6106 108.611C36.4106 109.391 38.2106 110.181 40.0006 110.971C40.9906 111.411 41.9606 111.871 42.9406 112.311C43.3906 112.511 43.6406 112.471 43.8606 111.881C44.4006 110.451 45.1006 109.091 45.7106 107.701C46.6406 105.581 47.5306 103.441 48.4606 101.321C49.2006 99.6211 49.9906 97.9411 50.7306 96.2511C51.3806 94.7711 51.9106 93.2411 52.6306 91.8011C53.3806 90.3211 53.8106 88.6811 54.7506 87.3011C55.5106 86.1811 56.6606 85.6611 57.8206 85.6711C58.9806 85.6411 60.1406 86.1411 60.9206 87.2411C61.8806 88.6111 62.3406 90.2311 63.1206 91.7011C63.8806 93.1211 64.4306 94.6411 65.1106 96.1111C65.8806 97.7911 66.7006 99.4611 67.4706 101.141C68.4406 103.241 69.3706 105.361 70.3406 107.461C70.9806 108.851 71.7106 110.191 72.2706 111.611C72.5006 112.201 72.7506 112.231 73.2006 112.021C74.1806 111.571 75.1406 111.081 76.1206 110.631C77.9006 109.801 79.6806 108.991 81.4706 108.171C82.5106 107.691 83.5606 107.221 84.6106 106.751C84.9606 106.591 85.1106 106.431 84.8906 106.001C84.3406 104.911 83.8806 103.791 83.3606 102.681C82.5506 100.961 81.6706 99.2711 80.9306 97.5311C80.0106 95.3711 78.9706 93.2811 78.0006 91.1511C77.2206 89.4511 76.4306 87.7411 75.6406 86.0411C74.4506 83.4911 73.4706 80.8411 71.5906 78.6911C70.5106 77.4511 69.3906 76.2311 68.0306 75.2911C67.0306 74.6011 66.0206 73.9311 64.8906 73.4211C63.2006 72.6511 61.4606 72.1811 59.6306 72.0211C59.0006 71.9611 58.3606 71.9111 57.7206 71.9211C57.0806 71.9211 56.4406 71.9911 55.8106 72.0611C53.9906 72.2611 52.2606 72.7611 50.5806 73.5611C49.4606 74.0911 48.4606 74.7811 47.4706 75.4911C46.1306 76.4611 45.0306 77.6911 43.9706 78.9511C42.1306 81.1411 41.2006 83.8111 40.0506 86.3811C39.2906 88.0911 38.5306 89.8111 37.7806 91.5311C36.8406 93.6811 35.8506 95.7911 34.9706 97.9611C34.2606 99.7211 33.4106 101.421 32.6306 103.161C32.1306 104.271 31.6906 105.411 31.1606 106.501C30.9506 106.941 31.1106 107.101 31.4606 107.251H31.4506Z" fill="#FF15FB"></path>
<path d="M1.2706 47.3711C1.1606 48.5111 1.06062 49.6611 0.950619 50.8011C0.760619 52.7511 0.570602 54.7111 0.370602 56.6611C0.260602 57.7311 0.120616 58.8011 0.0106163 59.8711C-0.0393837 60.3611 0.0706188 60.5811 0.700619 60.6111C2.22062 60.6811 3.73061 60.9312 5.25061 61.0812C7.55061 61.3112 9.86061 61.5011 12.1606 61.7311C14.0006 61.9111 15.8406 62.1411 17.6906 62.3211C19.3006 62.4811 20.9206 62.5111 22.5106 62.7611C24.1506 63.0211 25.8406 62.9211 27.4506 63.3811C28.7506 63.7611 29.6006 64.6911 29.9506 65.8011C30.3406 66.8911 30.2206 68.1511 29.4106 69.2311C28.4106 70.5711 27.0006 71.5112 25.8506 72.7012C24.7306 73.8612 23.4606 74.8612 22.2706 75.9512C20.9106 77.2012 19.5806 78.4911 18.2206 79.7511C16.5206 81.3211 14.7906 82.8611 13.0906 84.4311C11.9706 85.4611 10.9106 86.5711 9.7406 87.5511C9.2506 87.9511 9.30061 88.2011 9.63061 88.5611C10.3606 89.3511 11.1206 90.1211 11.8606 90.9011C13.2006 92.3411 14.5206 93.7811 15.8506 95.2311C16.6306 96.0811 17.4006 96.9211 18.1706 97.7711C18.4306 98.0511 18.6306 98.1511 18.9706 97.8111C19.8306 96.9511 20.7606 96.1612 21.6506 95.3312C23.0406 94.0312 24.3706 92.6711 25.8006 91.4211C27.5706 89.8811 29.2406 88.2511 30.9606 86.6611C32.3406 85.3911 33.7206 84.1211 35.0906 82.8411C37.1406 80.9211 39.3606 79.1711 40.8306 76.7111C41.6706 75.3011 42.4806 73.8611 42.9606 72.2711C43.3106 71.1011 43.6306 69.9412 43.7706 68.7012C43.9806 66.8612 43.8906 65.0611 43.4806 63.2711C43.3406 62.6511 43.1906 62.0311 42.9806 61.4211C42.7806 60.8111 42.5206 60.2311 42.2606 59.6511C41.5106 57.9811 40.4906 56.4912 39.2206 55.1412C38.3706 54.2412 37.4106 53.5011 36.4206 52.7811C35.0906 51.8011 33.5706 51.1411 32.0506 50.5311C29.4006 49.4611 26.5706 49.3911 23.7806 49.1011C21.9206 48.9011 20.0506 48.7211 18.1806 48.5311C15.8506 48.3011 13.5306 48.0111 11.1906 47.8411C9.30061 47.7111 7.41061 47.4311 5.53061 47.2211C4.32061 47.0911 3.1006 47.0211 1.9006 46.8611C1.4206 46.8011 1.32061 46.9911 1.28061 47.3711H1.2706Z" fill="#FF15FB"></path>
<path d="M48.8806 0.161107C47.7606 0.411107 46.6406 0.671107 45.5206 0.911107C43.6006 1.33111 41.6906 1.76112 39.7706 2.17112C38.7206 2.40112 37.6606 2.59111 36.6006 2.82111C36.1206 2.92111 35.9406 3.10113 36.1106 3.71113C36.5106 5.18113 36.7506 6.69113 37.0706 8.18113C37.5706 10.4411 38.1006 12.6911 38.5906 14.9511C38.9906 16.7611 39.3406 18.5812 39.7406 20.3911C40.0906 21.9711 40.5606 23.5211 40.8106 25.1111C41.0706 26.7511 41.6906 28.3311 41.7406 30.0011C41.7806 31.3511 41.1506 32.4511 40.2106 33.1211C39.2906 33.8211 38.0606 34.1111 36.7806 33.6711C35.2006 33.1311 33.8706 32.0811 32.3806 31.3511C30.9306 30.6411 29.5906 29.7411 28.1806 28.9511C26.5706 28.0411 24.9306 27.1711 23.3106 26.2711C21.2906 25.1411 19.2906 23.9711 17.2706 22.8411C15.9406 22.0911 14.5606 21.4311 13.2706 20.6211C12.7406 20.2811 12.5206 20.4012 12.2806 20.8312C11.7606 21.7712 11.2606 22.7311 10.7406 23.6711C9.79059 25.3811 8.82061 27.0911 7.86061 28.8011C7.30061 29.8011 6.7306 30.8011 6.1606 31.7911C5.9706 32.1211 5.94059 32.3411 6.37059 32.5611C7.45059 33.1211 8.49059 33.7611 9.56059 34.3411C11.2206 35.2611 12.9306 36.1012 14.5606 37.0812C16.5706 38.2812 18.6406 39.3711 20.6806 40.5211C22.3106 41.4411 23.9506 42.3511 25.5906 43.2611C28.0506 44.6211 30.4006 46.1912 33.1906 46.8312C34.7906 47.2011 36.4106 47.5211 38.0706 47.4911C39.2906 47.4611 40.5006 47.4111 41.7106 47.1611C43.5306 46.7911 45.2106 46.1411 46.7906 45.2011C47.3406 44.8711 47.8806 44.5411 48.4006 44.1611C48.9106 43.7811 49.3906 43.3611 49.8706 42.9311C51.2306 41.7011 52.3306 40.2711 53.2206 38.6411C53.8106 37.5511 54.2206 36.4111 54.6006 35.2511C55.1206 33.6811 55.2806 32.0311 55.3906 30.3911C55.5906 27.5411 54.7806 24.8312 54.1906 22.0812C53.8006 20.2512 53.4006 18.4112 53.0006 16.5812C52.5006 14.2912 52.0606 11.9911 51.4906 9.7211C51.0306 7.8811 50.7206 6.00112 50.3306 4.14112C50.0806 2.95112 49.7706 1.77111 49.5506 0.571111C49.4606 0.101111 49.2406 0.0611184 48.8706 0.141118L48.8806 0.161107Z" fill="#FF15FB"></path>
<path d="M108.491 30.8611C107.901 29.8711 107.321 28.8911 106.731 27.9011C105.741 26.2111 104.741 24.5211 103.751 22.8211C103.211 21.8911 102.701 20.9411 102.161 20.0111C101.911 19.5811 101.691 19.4711 101.161 19.8211C99.8906 20.6611 98.5206 21.3511 97.2006 22.1211C95.2006 23.2911 93.2206 24.4911 91.2306 25.6611C89.6306 26.6011 88.0106 27.4911 86.4106 28.4311C85.0206 29.2511 83.6906 30.1811 82.2606 30.9111C80.7806 31.6711 79.4706 32.7411 77.9006 33.3111C76.6306 33.7711 75.3906 33.5111 74.4606 32.8211C73.5106 32.1611 72.8606 31.0811 72.8706 29.7311C72.8906 28.0611 73.4806 26.4711 73.7106 24.8311C73.9306 23.2411 74.3806 21.6811 74.7006 20.0911C75.0606 18.2711 75.3806 16.4511 75.7506 14.6311C76.2006 12.3611 76.6906 10.1011 77.1506 7.83115C77.4506 6.33115 77.6506 4.82113 78.0306 3.34113C78.1906 2.73113 78.0106 2.56112 77.5206 2.46112C76.4606 2.25112 75.4006 2.08113 74.3406 1.87113C72.4106 1.49113 70.4906 1.10113 68.5706 0.721132C67.4406 0.491132 66.3206 0.26113 65.2006 0.0311297C64.8306 -0.0488703 64.6106 0.00113213 64.5306 0.471132C64.3306 1.67113 64.0506 2.86112 63.8206 4.05112C63.4606 5.92112 63.1806 7.80109 62.7606 9.65109C62.2406 11.9311 61.8406 14.2411 61.3806 16.5411C61.0106 18.3811 60.6506 20.2211 60.2906 22.0611C59.7606 24.8211 58.9906 27.5411 59.2506 30.3911C59.4006 32.0311 59.5906 33.6711 60.1306 35.2311C60.5306 36.3811 60.9606 37.5111 61.5706 38.5911C62.4906 40.2011 63.6206 41.6111 65.0006 42.8111C65.4806 43.2311 65.9706 43.6411 66.4906 44.0211C67.0106 44.3911 67.5606 44.7211 68.1206 45.0311C69.7106 45.9411 71.4106 46.5511 73.2306 46.8911C74.4506 47.1211 75.6606 47.1511 76.8806 47.1511C78.5306 47.1511 80.1506 46.8011 81.7406 46.4011C84.5206 45.7111 86.8406 44.1011 89.2706 42.6911C90.8906 41.7511 92.5106 40.8111 94.1306 39.8611C96.1506 38.6711 98.2006 37.5511 100.191 36.3111C101.801 35.3011 103.491 34.4311 105.131 33.4811C106.191 32.8711 107.211 32.2211 108.281 31.6411C108.701 31.4111 108.671 31.1911 108.481 30.8611H108.491Z" fill="#FF15FB"></path>
<path d="M97.7206 97.0412C98.4806 96.1812 99.2306 95.3112 99.9906 94.4512C101.291 92.9812 102.591 91.5112 103.901 90.0512C104.621 89.2512 105.361 88.4712 106.081 87.6612C106.411 87.2912 106.451 87.0512 105.961 86.6511C104.771 85.7011 103.691 84.6112 102.551 83.6012C100.821 82.0612 99.0706 80.5512 97.3406 79.0112C95.9606 77.7812 94.6006 76.5212 93.2206 75.2912C92.0106 74.2212 90.7206 73.2412 89.5806 72.1112C88.4006 70.9412 86.9806 70.0212 85.9506 68.7012C85.1206 67.6312 84.9906 66.3812 85.3506 65.2812C85.6806 64.1712 86.5106 63.2212 87.8006 62.8212C89.4006 62.3212 91.0906 62.3912 92.7206 62.1012C94.3006 61.8212 95.9306 61.7612 97.5306 61.5712C99.3706 61.3612 101.201 61.1012 103.041 60.8812C105.341 60.6112 107.641 60.3812 109.941 60.1112C111.461 59.9312 112.961 59.6612 114.481 59.5612C115.111 59.5212 115.221 59.2912 115.161 58.8112C115.031 57.7412 114.871 56.6712 114.741 55.6012C114.501 53.6512 114.281 51.7012 114.051 49.7512C113.921 48.6112 113.791 47.4712 113.671 46.3312C113.631 45.9512 113.521 45.7612 113.041 45.8312C111.841 46.0112 110.621 46.1112 109.411 46.2612C107.531 46.5012 105.651 46.8112 103.761 46.9812C101.431 47.1912 99.1106 47.5212 96.7806 47.8012C94.9206 48.0212 93.0606 48.2412 91.1906 48.4712C88.4006 48.8112 85.5706 48.9312 82.9406 50.0512C81.4306 50.7012 79.9206 51.3812 78.6106 52.3912C77.6406 53.1312 76.7006 53.8812 75.8606 54.8012C74.6106 56.1712 73.6206 57.6812 72.9006 59.3712C72.6506 59.9612 72.4006 60.5512 72.2106 61.1612C72.0206 61.7712 71.8806 62.4011 71.7506 63.0211C71.3806 64.8211 71.3206 66.6211 71.5606 68.4611C71.7206 69.6911 72.0606 70.8512 72.4406 72.0112C72.9506 73.5812 73.7806 75.0112 74.6506 76.4012C76.1606 78.8312 78.4206 80.5412 80.5006 82.4212C81.8906 83.6712 83.2906 84.9212 84.7006 86.1712C86.4506 87.7212 88.1606 89.3312 89.9506 90.8312C91.4006 92.0512 92.7606 93.3812 94.1706 94.6612C95.0706 95.4812 96.0206 96.2512 96.9006 97.0912C97.2506 97.4212 97.4506 97.3212 97.7006 97.0412H97.7206Z" fill="#FF15FB"></path>
</svg><style>@media (prefers-color-scheme: light) { :root { filter: none; } }
@media (prefers-color-scheme: dark) { :root { filter: none; } }
</style></svg>