<?xml version="1.0" encoding="UTF-8"?>
<svg width="400" height="400" viewBox="0 0 400 400" fill="none" xmlns="http://www.w3.org/2000/svg">
  <!-- Background Circle -->
  <circle cx="200" cy="200" r="180" fill="#F3E8FF" />
  
  <!-- Robot Face -->
  <circle cx="200" cy="200" r="100" fill="#E855FF" />
  <circle cx="160" cy="170" r="20" fill="white" />
  <circle cx="240" cy="170" r="20" fill="white" />
  <path d="M160 240 Q200 280 240 240" stroke="white" stroke-width="10" stroke-linecap="round" />
  
  <!-- Decorative Elements -->
  <circle cx="120" cy="100" r="30" fill="#9333EA" opacity="0.5" />
  <circle cx="280" cy="100" r="20" fill="#9333EA" opacity="0.3" />
  <circle cx="100" cy="280" r="25" fill="#9333EA" opacity="0.4" />
  <circle cx="300" cy="280" r="35" fill="#9333EA" opacity="0.6" />
  
  <!-- Plus Signs -->
  <path d="M50 200 L70 200 M60 190 L60 210" stroke="#9333EA" stroke-width="4" stroke-linecap="round" />
  <path d="M330 200 L350 200 M340 190 L340 210" stroke="#9333EA" stroke-width="4" stroke-linecap="round" />
  <path d="M200 50 L200 70 M190 60 L210 60" stroke="#9333EA" stroke-width="4" stroke-linecap="round" />
  <path d="M200 330 L200 350 M190 340 L210 340" stroke="#9333EA" stroke-width="4" stroke-linecap="round" />
</svg> 