<svg width="395" height="114" viewBox="0 0 395 114" fill="none" xmlns="http://www.w3.org/2000/svg">
<path d="M149.679 84.5538C149.629 94.5608 146.984 101.873 141.709 106.474C136.434 111.075 128.629 114.033 117.899 114C96.3078 113.901 85.3641 103.631 85.4463 84.5373L85.6928 27.2558C85.6928 26.007 86.9416 25.0046 88.4698 25.0046L95.9134 25.0374C97.4416 25.0374 98.674 26.0562 98.674 27.305L98.4439 83.6664C98.3782 97.4856 104.967 102.448 117.899 102.497C124.39 102.53 128.826 101.643 131.866 98.3894C134.923 95.1359 136.648 91.0608 136.681 83.6993L136.911 27.453C136.911 26.2042 138.16 25.2018 139.688 25.2018L147.132 25.2346C148.66 25.2346 149.892 26.2534 149.892 27.5022L149.646 84.5373L149.679 84.5538Z" fill="white"/>
<path d="M0.24819 48.934C0.281283 38.8787 3.12721 31.5241 8.76942 26.921C14.4116 22.301 22.9659 20.025 34.4489 20.0759C57.5638 20.1778 69.0798 29.8085 69.0137 49.002L68.782 106.548C68.782 107.805 67.4418 108.807 65.8037 108.807L57.8285 108.773C56.1904 108.773 54.8668 107.737 54.8668 106.497V50.2758C54.5068 47.8792 56.2401 41.7832 48.7944 34.9891C46.0146 33.1207 39.3355 31.592 34.4489 31.592C28.9391 31.592 21.2852 32.7024 19.0114 34.9891C15.7519 38.2672 14.18 42.4286 14.1469 49.8172L13.9152 106.327C13.9152 107.584 12.575 108.586 10.937 108.586L2.96175 108.552C1.32369 108.552 0 107.516 0 106.276L0.231644 48.9679L0.24819 48.934Z" fill="white"/>
<path d="M321.967 20.0915C310.679 20.0422 302.266 22.3263 296.712 26.9108C291.158 31.4953 288.364 38.8074 288.315 48.8309L288.068 105.866C288.068 107.115 289.367 108.134 290.977 108.134L298.831 108.166C300.442 108.166 301.756 107.164 301.756 105.915L301.871 77.7017L310.827 77.7346C311.977 77.7346 312.913 76.8144 312.913 75.6642L312.946 66.2815C312.946 65.1313 312.026 64.1948 310.876 64.1948L301.921 64.1619L301.986 49.6689C302.019 42.3074 302.43 38.4459 305.634 35.1924C308.838 31.9389 315.23 31.068 322.066 31.0845C335.688 31.1338 342.327 35.899 342.261 49.7183L342.031 106.08C342.031 107.328 343.329 108.347 344.939 108.347L352.794 108.38C354.404 108.38 355.719 107.378 355.719 106.129L355.965 48.8473C356.047 29.7535 344.709 20.1572 321.967 20.0751V20.0915Z" fill="white"/>
<path d="M269.172 25.4483L262.55 25.4154C261.186 25.4154 260.085 26.4179 260.085 27.6667L259.855 83.913C259.822 91.2745 258.458 96.582 255.747 99.8355C253.036 103.089 248.747 103.96 242.979 103.927C231.493 103.878 225.824 97.6994 225.874 83.8801L226.104 27.5188C226.104 26.2699 225.019 25.2512 223.655 25.2512H221.174L217.033 25.2183H214.552C213.188 25.2183 212.087 26.2043 212.087 27.4531L211.857 83.6994C211.824 91.0609 210.461 96.3684 207.749 99.6219C205.038 102.875 200.749 103.96 194.982 103.927C183.496 103.878 177.827 97.4857 177.876 83.6665L178.106 27.3051C178.106 26.0563 177.022 25.0375 175.658 25.0375L169.036 25.0046C167.672 25.0046 166.571 26.0071 166.571 27.2559L166.325 84.5375C166.242 103.631 175.789 113.211 194.982 113.293C204.496 113.326 211.611 111.058 216.294 106.458C217.28 105.488 218.151 104.371 218.939 103.155C223.524 109.99 231.526 113.458 242.979 113.507C252.493 113.54 259.608 111.272 264.292 106.671C268.975 102.07 271.341 94.7581 271.39 84.7511L271.637 27.7159C271.637 26.4671 270.552 25.4483 269.188 25.4483H269.172Z" fill="white"/>
<path d="M375.682 36.9342C385.329 36.9342 393.149 29.1139 393.149 19.4671C393.149 9.82029 385.329 2 375.682 2C366.035 2 358.215 9.82029 358.215 19.4671C358.215 29.1139 366.035 36.9342 375.682 36.9342Z" stroke="white" stroke-width="3" stroke-miterlimit="10"/>
<path d="M366.464 26.5492L370.72 12.8286C370.917 12.1878 371.361 11.8591 372.034 11.8591H374.203C374.894 11.8591 375.321 12.1878 375.518 12.8286L379.774 26.5492H376.06L375.206 23.1807H370.868L370.013 26.5492H366.431H366.464ZM371.887 19.2206L371.574 20.4694H374.565L374.253 19.2206C374.121 18.7112 373.924 17.9061 373.661 16.838C373.398 15.7699 373.201 14.9812 373.086 14.5047C372.527 16.7065 372.117 18.284 371.887 19.2206Z" fill="white"/>
<path d="M381.335 26.5492V11.8591H384.868V26.5492H381.335Z" fill="white"/>
</svg>
