<svg width="535" height="115" viewBox="0 0 535 115" fill="none" xmlns="http://www.w3.org/2000/svg">
<path d="M31.4506 109.251C32.5006 109.701 33.5606 110.161 34.6106 110.611C36.4106 111.391 38.2106 112.181 40.0006 112.971C40.9906 113.411 41.9606 113.871 42.9406 114.311C43.3906 114.511 43.6406 114.471 43.8606 113.881C44.4006 112.451 45.1006 111.091 45.7106 109.701C46.6406 107.581 47.5306 105.441 48.4606 103.321C49.2006 101.621 49.9906 99.9411 50.7306 98.2511C51.3806 96.7711 51.9106 95.2411 52.6306 93.8011C53.3806 92.3211 53.8106 90.6811 54.7506 89.3011C55.5106 88.1811 56.6606 87.6611 57.8206 87.6711C58.9806 87.6411 60.1406 88.1411 60.9206 89.2411C61.8806 90.6111 62.3406 92.2311 63.1206 93.7011C63.8806 95.1211 64.4306 96.6411 65.1106 98.1111C65.8806 99.7911 66.7006 101.461 67.4706 103.141C68.4406 105.241 69.3706 107.361 70.3406 109.461C70.9806 110.851 71.7106 112.191 72.2706 113.611C72.5006 114.201 72.7506 114.231 73.2006 114.021C74.1806 113.571 75.1406 113.081 76.1206 112.631C77.9006 111.801 79.6806 110.991 81.4706 110.171C82.5106 109.691 83.5606 109.221 84.6106 108.751C84.9606 108.591 85.1106 108.431 84.8906 108.001C84.3406 106.911 83.8806 105.791 83.3606 104.681C82.5506 102.961 81.6706 101.271 80.9306 99.5311C80.0106 97.3711 78.9706 95.2811 78.0006 93.1511C77.2206 91.4511 76.4306 89.7411 75.6406 88.0411C74.4506 85.4911 73.4706 82.8411 71.5906 80.6911C70.5106 79.4511 69.3906 78.2311 68.0306 77.2911C67.0306 76.6011 66.0206 75.9311 64.8906 75.4211C63.2006 74.6511 61.4606 74.1811 59.6306 74.0211C59.0006 73.9611 58.3606 73.9111 57.7206 73.9211C57.0806 73.9211 56.4406 73.9911 55.8106 74.0611C53.9906 74.2611 52.2606 74.7611 50.5806 75.5611C49.4606 76.0911 48.4606 76.7811 47.4706 77.4911C46.1306 78.4611 45.0306 79.6911 43.9706 80.9511C42.1306 83.1411 41.2006 85.8111 40.0506 88.3811C39.2906 90.0911 38.5306 91.8111 37.7806 93.5311C36.8406 95.6811 35.8506 97.7911 34.9706 99.9611C34.2606 101.721 33.4106 103.421 32.6306 105.161C32.1306 106.271 31.6906 107.411 31.1606 108.501C30.9506 108.941 31.1106 109.101 31.4606 109.251H31.4506Z" fill="#FF15FB"/>
<path d="M1.2706 49.3711C1.1606 50.5111 1.06062 51.6611 0.950619 52.8011C0.760619 54.7511 0.570602 56.7111 0.370602 58.6611C0.260602 59.7311 0.120616 60.8011 0.0106163 61.8711C-0.0393837 62.3611 0.0706188 62.5811 0.700619 62.6111C2.22062 62.6811 3.73061 62.9312 5.25061 63.0812C7.55061 63.3112 9.86061 63.5011 12.1606 63.7311C14.0006 63.9111 15.8406 64.1411 17.6906 64.3211C19.3006 64.4811 20.9206 64.5111 22.5106 64.7611C24.1506 65.0211 25.8406 64.9211 27.4506 65.3811C28.7506 65.7611 29.6006 66.6911 29.9506 67.8011C30.3406 68.8911 30.2206 70.1511 29.4106 71.2311C28.4106 72.5711 27.0006 73.5112 25.8506 74.7012C24.7306 75.8612 23.4606 76.8612 22.2706 77.9512C20.9106 79.2012 19.5806 80.4911 18.2206 81.7511C16.5206 83.3211 14.7906 84.8611 13.0906 86.4311C11.9706 87.4611 10.9106 88.5711 9.7406 89.5511C9.2506 89.9511 9.30061 90.2011 9.63061 90.5611C10.3606 91.3511 11.1206 92.1211 11.8606 92.9011C13.2006 94.3411 14.5206 95.7811 15.8506 97.2311C16.6306 98.0811 17.4006 98.9211 18.1706 99.7711C18.4306 100.051 18.6306 100.151 18.9706 99.8111C19.8306 98.9511 20.7606 98.1612 21.6506 97.3312C23.0406 96.0312 24.3706 94.6711 25.8006 93.4211C27.5706 91.8811 29.2406 90.2511 30.9606 88.6611C32.3406 87.3911 33.7206 86.1211 35.0906 84.8411C37.1406 82.9211 39.3606 81.1711 40.8306 78.7111C41.6706 77.3011 42.4806 75.8611 42.9606 74.2711C43.3106 73.1011 43.6306 71.9412 43.7706 70.7012C43.9806 68.8612 43.8906 67.0611 43.4806 65.2711C43.3406 64.6511 43.1906 64.0311 42.9806 63.4211C42.7806 62.8111 42.5206 62.2311 42.2606 61.6511C41.5106 59.9811 40.4906 58.4912 39.2206 57.1412C38.3706 56.2412 37.4106 55.5011 36.4206 54.7811C35.0906 53.8011 33.5706 53.1411 32.0506 52.5311C29.4006 51.4611 26.5706 51.3911 23.7806 51.1011C21.9206 50.9011 20.0506 50.7211 18.1806 50.5311C15.8506 50.3011 13.5306 50.0111 11.1906 49.8411C9.30061 49.7111 7.41061 49.4311 5.53061 49.2211C4.32061 49.0911 3.1006 49.0211 1.9006 48.8611C1.4206 48.8011 1.32061 48.9911 1.28061 49.3711H1.2706Z" fill="#FF15FB"/>
<path d="M48.8806 2.16105C47.7606 2.41105 46.6406 2.67105 45.5206 2.91105C43.6006 3.33105 41.6906 3.76106 39.7706 4.17106C38.7206 4.40106 37.6606 4.59105 36.6006 4.82105C36.1206 4.92105 35.9406 5.10106 36.1106 5.71106C36.5106 7.18106 36.7506 8.69107 37.0706 10.1811C37.5706 12.4411 38.1006 14.6911 38.5906 16.9511C38.9906 18.7611 39.3406 20.5811 39.7406 22.3911C40.0906 23.9711 40.5606 25.5211 40.8106 27.1111C41.0706 28.7511 41.6906 30.3311 41.7406 32.0011C41.7806 33.3511 41.1506 34.4511 40.2106 35.1211C39.2906 35.8211 38.0606 36.1111 36.7806 35.6711C35.2006 35.1311 33.8706 34.081 32.3806 33.351C30.9306 32.6411 29.5906 31.7411 28.1806 30.9511C26.5706 30.0411 24.9306 29.171 23.3106 28.271C21.2906 27.141 19.2906 25.971 17.2706 24.841C15.9406 24.091 14.5606 23.4311 13.2706 22.6211C12.7406 22.2811 12.5206 22.4011 12.2806 22.8311C11.7606 23.7711 11.2606 24.7311 10.7406 25.6711C9.79059 27.3811 8.82061 29.0911 7.86061 30.8011C7.30061 31.8011 6.7306 32.8011 6.1606 33.7911C5.9706 34.1211 5.94059 34.3411 6.37059 34.5611C7.45059 35.1211 8.49059 35.761 9.56059 36.341C11.2206 37.261 12.9306 38.1011 14.5606 39.0811C16.5706 40.2811 18.6406 41.371 20.6806 42.521C22.3106 43.441 23.9506 44.3511 25.5906 45.2611C28.0506 46.6211 30.4006 48.1911 33.1906 48.8311C34.7906 49.2011 36.4106 49.5211 38.0706 49.4911C39.2906 49.4611 40.5006 49.411 41.7106 49.161C43.5306 48.791 45.2106 48.1411 46.7906 47.2011C47.3406 46.8711 47.8806 46.541 48.4006 46.161C48.9106 45.781 49.3906 45.3611 49.8706 44.9311C51.2306 43.7011 52.3306 42.2711 53.2206 40.6411C53.8106 39.5511 54.2206 38.4111 54.6006 37.2511C55.1206 35.6811 55.2806 34.0311 55.3906 32.3911C55.5906 29.5411 54.7806 26.8311 54.1906 24.0811C53.8006 22.2511 53.4006 20.4111 53.0006 18.5811C52.5006 16.2911 52.0606 13.991 51.4906 11.721C51.0306 9.88104 50.7206 8.00106 50.3306 6.14106C50.0806 4.95106 49.7706 3.77105 49.5506 2.57105C49.4606 2.10105 49.2406 2.06106 48.8706 2.14106L48.8806 2.16105Z" fill="#FF15FB"/>
<path d="M108.491 32.8611C107.901 31.8711 107.321 30.8911 106.731 29.9011C105.741 28.2111 104.741 26.5211 103.751 24.8211C103.211 23.8911 102.701 22.9411 102.161 22.0111C101.911 21.5811 101.691 21.4711 101.161 21.8211C99.8906 22.6611 98.5206 23.3511 97.2006 24.1211C95.2006 25.2911 93.2206 26.4911 91.2306 27.6611C89.6306 28.6011 88.0106 29.4911 86.4106 30.4311C85.0206 31.2511 83.6906 32.1811 82.2606 32.9111C80.7806 33.6711 79.4706 34.7411 77.9006 35.3111C76.6306 35.7711 75.3906 35.5111 74.4606 34.8211C73.5106 34.1611 72.8606 33.0811 72.8706 31.7311C72.8906 30.0611 73.4806 28.4711 73.7106 26.8311C73.9306 25.2411 74.3806 23.6811 74.7006 22.0911C75.0606 20.2711 75.3806 18.4511 75.7506 16.6311C76.2006 14.3611 76.6906 12.1011 77.1506 9.83115C77.4506 8.33115 77.6506 6.82113 78.0306 5.34113C78.1906 4.73113 78.0106 4.56112 77.5206 4.46112C76.4606 4.25112 75.4006 4.08113 74.3406 3.87113C72.4106 3.49113 70.4906 3.10113 68.5706 2.72113C67.4406 2.49113 66.3206 2.26113 65.2006 2.03113C64.8306 1.95113 64.6106 2.00113 64.5306 2.47113C64.3306 3.67113 64.0506 4.86112 63.8206 6.05112C63.4606 7.92112 63.1806 9.80109 62.7606 11.6511C62.2406 13.9311 61.8406 16.2411 61.3806 18.5411C61.0106 20.3811 60.6506 22.2211 60.2906 24.0611C59.7606 26.8211 58.9906 29.5411 59.2506 32.3911C59.4006 34.0311 59.5906 35.6711 60.1306 37.2311C60.5306 38.3811 60.9606 39.5111 61.5706 40.5911C62.4906 42.2011 63.6206 43.6111 65.0006 44.8111C65.4806 45.2311 65.9706 45.6411 66.4906 46.0211C67.0106 46.3911 67.5606 46.7211 68.1206 47.0311C69.7106 47.9411 71.4106 48.5511 73.2306 48.8911C74.4506 49.1211 75.6606 49.1511 76.8806 49.1511C78.5306 49.1511 80.1506 48.8011 81.7406 48.4011C84.5206 47.7111 86.8406 46.1011 89.2706 44.6911C90.8906 43.7511 92.5106 42.8111 94.1306 41.8611C96.1506 40.6711 98.2006 39.5511 100.191 38.3111C101.801 37.3011 103.491 36.4311 105.131 35.4811C106.191 34.8711 107.211 34.2211 108.281 33.6411C108.701 33.4111 108.671 33.1911 108.481 32.8611H108.491Z" fill="#FF15FB"/>
<path d="M97.7206 99.0412C98.4806 98.1812 99.2306 97.3112 99.9906 96.4512C101.291 94.9812 102.591 93.5112 103.901 92.0512C104.621 91.2512 105.361 90.4712 106.081 89.6612C106.411 89.2912 106.451 89.0512 105.961 88.6511C104.771 87.7011 103.691 86.6112 102.551 85.6012C100.821 84.0612 99.0706 82.5512 97.3406 81.0112C95.9606 79.7812 94.6006 78.5212 93.2206 77.2912C92.0106 76.2212 90.7206 75.2412 89.5806 74.1112C88.4006 72.9412 86.9806 72.0212 85.9506 70.7012C85.1206 69.6312 84.9906 68.3812 85.3506 67.2812C85.6806 66.1712 86.5106 65.2212 87.8006 64.8212C89.4006 64.3212 91.0906 64.3912 92.7206 64.1012C94.3006 63.8212 95.9306 63.7612 97.5306 63.5712C99.3706 63.3612 101.201 63.1012 103.041 62.8812C105.341 62.6112 107.641 62.3812 109.941 62.1112C111.461 61.9312 112.961 61.6612 114.481 61.5612C115.111 61.5212 115.221 61.2912 115.161 60.8112C115.031 59.7412 114.871 58.6712 114.741 57.6012C114.501 55.6512 114.281 53.7012 114.051 51.7512C113.921 50.6112 113.791 49.4712 113.671 48.3312C113.631 47.9512 113.521 47.7612 113.041 47.8312C111.841 48.0112 110.621 48.1112 109.411 48.2612C107.531 48.5012 105.651 48.8112 103.761 48.9812C101.431 49.1912 99.1106 49.5212 96.7806 49.8012C94.9206 50.0212 93.0606 50.2412 91.1906 50.4712C88.4006 50.8112 85.5706 50.9312 82.9406 52.0512C81.4306 52.7012 79.9206 53.3812 78.6106 54.3912C77.6406 55.1312 76.7006 55.8812 75.8606 56.8012C74.6106 58.1712 73.6206 59.6812 72.9006 61.3712C72.6506 61.9612 72.4006 62.5512 72.2106 63.1612C72.0206 63.7712 71.8806 64.4011 71.7506 65.0211C71.3806 66.8211 71.3206 68.6211 71.5606 70.4611C71.7206 71.6911 72.0606 72.8512 72.4406 74.0112C72.9506 75.5812 73.7806 77.0112 74.6506 78.4012C76.1606 80.8312 78.4206 82.5412 80.5006 84.4212C81.8906 85.6712 83.2906 86.9212 84.7006 88.1712C86.4506 89.7212 88.1606 91.3312 89.9506 92.8312C91.4006 94.0512 92.7606 95.3812 94.1706 96.6612C95.0706 97.4812 96.0206 98.2512 96.9006 99.0912C97.2506 99.4212 97.4506 99.3212 97.7006 99.0412H97.7206Z" fill="#FF15FB"/>
<path d="M289.679 84.5538C289.629 94.5608 286.984 101.873 281.709 106.474C276.434 111.075 268.629 114.033 257.899 114C236.308 113.901 225.364 103.631 225.446 84.5373L225.693 27.2558C225.693 26.007 226.942 25.0046 228.47 25.0046L235.913 25.0374C237.442 25.0374 238.674 26.0562 238.674 27.305L238.444 83.6664C238.378 97.4856 244.967 102.448 257.899 102.497C264.39 102.53 268.826 101.643 271.866 98.3894C274.923 95.1359 276.648 91.0608 276.681 83.6993L276.911 27.453C276.911 26.2042 278.16 25.2018 279.688 25.2018L287.132 25.2346C288.66 25.2346 289.892 26.2534 289.892 27.5022L289.646 84.5373L289.679 84.5538Z" fill="white"/>
<path d="M140.248 48.934C140.281 38.8787 143.127 31.5241 148.769 26.921C154.412 22.301 162.966 20.025 174.449 20.0759C197.564 20.1778 209.08 29.8085 209.014 49.002L208.782 106.548C208.782 107.805 207.442 108.807 205.804 108.807L197.829 108.773C196.19 108.773 194.867 107.737 194.867 106.497V50.2758C194.507 47.8792 196.24 41.7832 188.794 34.9891C186.015 33.1207 179.335 31.592 174.449 31.592C168.939 31.592 161.285 32.7024 159.011 34.9891C155.752 38.2672 154.18 42.4286 154.147 49.8172L153.915 106.327C153.915 107.584 152.575 108.586 150.937 108.586L142.962 108.552C141.324 108.552 140 107.516 140 106.276L140.232 48.9679L140.248 48.934Z" fill="white"/>
<path d="M461.967 20.0915C450.679 20.0422 442.266 22.3263 436.712 26.9108C431.158 31.4953 428.364 38.8074 428.315 48.8309L428.068 105.866C428.068 107.115 429.367 108.134 430.977 108.134L438.831 108.166C440.442 108.166 441.756 107.164 441.756 105.915L441.871 77.7017L450.827 77.7346C451.977 77.7346 452.913 76.8144 452.913 75.6642L452.946 66.2815C452.946 65.1313 452.026 64.1948 450.876 64.1948L441.921 64.1619L441.986 49.6689C442.019 42.3074 442.43 38.4459 445.634 35.1924C448.838 31.9389 455.23 31.068 462.066 31.0845C475.688 31.1338 482.327 35.899 482.261 49.7183L482.031 106.08C482.031 107.328 483.329 108.347 484.939 108.347L492.794 108.38C494.404 108.38 495.719 107.378 495.719 106.129L495.965 48.8473C496.047 29.7535 484.709 20.1572 461.967 20.0751V20.0915Z" fill="white"/>
<path d="M409.172 25.4483L402.55 25.4154C401.186 25.4154 400.085 26.4179 400.085 27.6667L399.855 83.913C399.822 91.2745 398.458 96.582 395.747 99.8355C393.036 103.089 388.747 103.96 382.979 103.927C371.493 103.878 365.824 97.6994 365.874 83.8801L366.104 27.5188C366.104 26.2699 365.019 25.2512 363.655 25.2512H361.174L357.033 25.2183H354.552C353.188 25.2183 352.087 26.2043 352.087 27.4531L351.857 83.6994C351.824 91.0609 350.461 96.3684 347.749 99.6219C345.038 102.875 340.749 103.96 334.982 103.927C323.496 103.878 317.827 97.4857 317.876 83.6665L318.106 27.3051C318.106 26.0563 317.022 25.0375 315.658 25.0375L309.036 25.0046C307.672 25.0046 306.571 26.0071 306.571 27.2559L306.325 84.5375C306.242 103.631 315.789 113.211 334.982 113.293C344.496 113.326 351.611 111.058 356.294 106.458C357.28 105.488 358.151 104.371 358.939 103.155C363.524 109.99 371.526 113.458 382.979 113.507C392.493 113.54 399.608 111.272 404.292 106.671C408.975 102.07 411.341 94.7581 411.39 84.7511L411.637 27.7159C411.637 26.4671 410.552 25.4483 409.188 25.4483H409.172Z" fill="white"/>
<path d="M515.682 36.9342C525.329 36.9342 533.149 29.1139 533.149 19.4671C533.149 9.82029 525.329 2 515.682 2C506.035 2 498.215 9.82029 498.215 19.4671C498.215 29.1139 506.035 36.9342 515.682 36.9342Z" stroke="white" stroke-width="3" stroke-miterlimit="10"/>
<path d="M506.464 26.5492L510.72 12.8286C510.917 12.1878 511.361 11.8591 512.034 11.8591H514.203C514.894 11.8591 515.321 12.1878 515.518 12.8286L519.774 26.5492H516.06L515.206 23.1807H510.868L510.013 26.5492H506.431H506.464ZM511.887 19.2206L511.574 20.4694H514.565L514.253 19.2206C514.121 18.7112 513.924 17.9061 513.661 16.838C513.398 15.7699 513.201 14.9812 513.086 14.5047C512.527 16.7065 512.117 18.284 511.887 19.2206Z" fill="white"/>
<path d="M521.335 26.5492V11.8591H524.868V26.5492H521.335Z" fill="white"/>
</svg>
