<svg width="241" height="287" viewBox="0 0 241 287" fill="none" xmlns="http://www.w3.org/2000/svg">
<path d="M56.7421 194.456C58.6521 195.286 60.5621 196.116 62.4721 196.956C65.7321 198.396 68.9921 199.826 72.2421 201.276C74.0321 202.076 75.7921 202.926 77.5721 203.726C78.3921 204.096 78.8321 204.026 79.2421 202.956C80.2221 200.376 81.5121 197.906 82.6321 195.376C84.3321 191.536 85.9721 187.666 87.6721 183.826C89.0321 180.756 90.4721 177.706 91.8221 174.636C93.0021 171.956 93.9821 169.176 95.3121 166.576C96.6921 163.896 97.4821 160.926 99.1921 158.416C100.582 156.386 102.682 155.466 104.782 155.486C106.882 155.446 108.992 156.346 110.402 158.356C112.142 160.846 112.962 163.806 114.362 166.476C115.722 169.056 116.722 171.836 117.932 174.496C119.322 177.556 120.792 180.586 122.182 183.646C123.922 187.466 125.602 191.326 127.342 195.146C128.492 197.666 129.802 200.116 130.812 202.696C131.232 203.766 131.682 203.826 132.492 203.456C134.272 202.636 136.022 201.766 137.802 200.956C141.042 199.466 144.282 198.006 147.532 196.536C149.432 195.676 151.332 194.826 153.232 193.976C153.862 193.696 154.142 193.396 153.752 192.616C152.772 190.636 151.932 188.586 151.002 186.586C149.552 183.456 147.962 180.386 146.622 177.216C144.972 173.296 143.102 169.476 141.352 165.606C139.942 162.506 138.532 159.406 137.102 156.316C134.962 151.686 133.202 146.856 129.802 142.936C127.852 140.676 125.822 138.466 123.362 136.746C121.552 135.476 119.722 134.266 117.672 133.326C114.612 131.926 111.452 131.056 108.142 130.746C106.992 130.636 105.832 130.546 104.672 130.546C103.512 130.546 102.352 130.656 101.202 130.776C97.8921 131.126 94.7421 132.026 91.7021 133.456C89.6621 134.416 87.8421 135.646 86.0521 136.936C83.6121 138.686 81.6121 140.916 79.6821 143.196C76.3221 147.156 74.6121 151.996 72.5221 156.646C71.1221 159.746 69.7421 162.856 68.3721 165.976C66.6521 169.866 64.8321 173.696 63.2221 177.636C61.9221 180.826 60.3621 183.906 58.9421 187.056C58.0321 189.066 57.2121 191.126 56.2521 193.116C55.8721 193.906 56.1521 194.196 56.7821 194.476L56.7421 194.456Z" fill="#FF15FB"/>
<path d="M2.40207 85.5464C2.20207 87.6164 2.00207 89.6964 1.79207 91.7664C1.43207 95.3064 1.08207 98.8563 0.702073 102.396C0.492073 104.336 0.232073 106.276 0.0220728 108.226C-0.0779272 109.116 0.132073 109.516 1.27207 109.576C4.03207 109.716 6.77207 110.176 9.53207 110.456C13.7121 110.886 17.9021 111.246 22.0721 111.686C25.4121 112.026 28.7521 112.456 32.1021 112.796C35.0121 113.096 37.9621 113.156 40.8421 113.626C43.8221 114.106 46.8921 113.936 49.8021 114.796C52.1621 115.496 53.6921 117.196 54.3121 119.206C55.0021 121.186 54.7921 123.476 53.3121 125.436C51.4821 127.856 48.9221 129.556 46.8121 131.716C44.7721 133.806 42.4521 135.616 40.2821 137.586C37.8021 139.856 35.3721 142.186 32.8921 144.456C29.7921 147.296 26.6521 150.076 23.5521 152.916C21.5121 154.786 19.5821 156.786 17.4421 158.546C16.5521 159.276 16.6321 159.716 17.2421 160.376C18.5721 161.816 19.9421 163.216 21.2621 164.646C23.6721 167.266 26.0721 169.896 28.4721 172.526C29.8721 174.066 31.2721 175.616 32.6721 177.156C33.1321 177.666 33.5021 177.846 34.1221 177.226C35.7021 175.676 37.3921 174.246 39.0021 172.746C41.5321 170.396 43.9521 167.946 46.5621 165.686C49.7821 162.906 52.8321 159.946 55.9721 157.086C58.4821 154.786 60.9921 152.486 63.4921 150.176C67.2321 146.706 71.2821 143.546 73.9621 139.096C75.5021 136.536 76.9921 133.936 77.8621 131.066C78.5121 128.956 79.1021 126.836 79.3621 124.596C79.7521 121.256 79.6021 117.986 78.8721 114.736C78.6221 113.606 78.3521 112.476 77.9921 111.376C77.6321 110.276 77.1721 109.206 76.7021 108.146C75.3521 105.106 73.5221 102.386 71.2121 99.9363C69.6721 98.2963 67.9321 96.9463 66.1521 95.6363C63.7421 93.8563 60.9921 92.6463 58.2321 91.5063C53.4321 89.5363 48.2921 89.4063 43.2221 88.8463C39.8421 88.4763 36.4521 88.1263 33.0721 87.7763C28.8421 87.3463 24.6321 86.7963 20.3921 86.4763C16.9521 86.2163 13.5421 85.6963 10.1121 85.3163C7.91207 85.0763 5.70207 84.9263 3.52207 84.6263C2.65207 84.5063 2.46207 84.8664 2.39207 85.5464H2.40207Z" fill="#FF15FB"/>
<path d="M89.1921 0.216467C87.1621 0.666467 85.1221 1.11646 83.0821 1.55646C79.6021 2.30646 76.1221 3.06646 72.6421 3.80646C70.7321 4.20646 68.8021 4.55646 66.8921 4.95646C66.0221 5.13646 65.6921 5.45647 65.9921 6.56647C66.7121 9.23647 67.1221 11.9865 67.7021 14.6965C68.5821 18.8065 69.5321 22.8965 70.4121 27.0065C71.1221 30.2965 71.7421 33.5965 72.4521 36.8865C73.0721 39.7465 73.9121 42.5665 74.3621 45.4565C74.8221 48.4365 75.9321 51.3065 76.0121 54.3365C76.0821 56.7965 74.9321 58.7765 73.2121 59.9965C71.5421 61.2665 69.3021 61.7665 66.9821 60.9765C64.1121 59.9865 61.7121 58.0765 59.0021 56.7365C56.3821 55.4465 53.9421 53.7965 51.4021 52.3465C48.4821 50.6865 45.5121 49.0965 42.5921 47.4365C38.9321 45.3665 35.3121 43.2365 31.6621 41.1665C29.2521 39.7965 26.7521 38.5865 24.4221 37.0965C23.4521 36.4765 23.0521 36.6965 22.6221 37.4765C21.6621 39.1865 20.7621 40.9165 19.8021 42.6265C18.0621 45.7265 16.2921 48.8265 14.5321 51.9165C13.5021 53.7265 12.4621 55.5365 11.4221 57.3365C11.0821 57.9365 11.0221 58.3365 11.8021 58.7465C13.7621 59.7665 15.6421 60.9365 17.5721 62.0065C20.5821 63.6865 23.6721 65.2365 26.6221 67.0165C30.2621 69.2165 34.0121 71.2065 37.7121 73.3065C40.6721 74.9865 43.6321 76.6565 46.6021 78.3265C51.0521 80.8165 55.3121 83.6865 60.3721 84.8665C63.2821 85.5465 66.2221 86.1465 69.2221 86.0965C71.4321 86.0565 73.6321 85.9665 75.8321 85.5165C79.1321 84.8565 82.1921 83.6965 85.0621 82.0065C86.0621 81.4165 87.0521 80.8165 87.9821 80.1265C88.9221 79.4365 89.7921 78.6765 90.6521 77.8965C93.1221 75.6665 95.1421 73.0965 96.7621 70.1465C97.8521 68.1765 98.5921 66.1065 99.2921 64.0065C100.242 61.1565 100.542 58.1765 100.772 55.1965C101.162 50.0165 99.7021 45.0965 98.6621 40.1065C97.9721 36.7765 97.2621 33.4465 96.5421 30.1165C95.6421 25.9665 94.8721 21.7865 93.8621 17.6565C93.0421 14.3065 92.4921 10.8965 91.7921 7.52646C91.3421 5.36646 90.8021 3.21648 90.4121 1.04648C90.2621 0.186484 89.8621 0.116485 89.1821 0.266485L89.1921 0.216467Z" fill="#FF15FB"/>
<path d="M197.172 56.3864C196.112 54.5864 195.052 52.7964 194.002 50.9964C192.212 47.9164 190.412 44.8464 188.642 41.7564C187.662 40.0564 186.742 38.3364 185.772 36.6364C185.332 35.8664 184.922 35.6464 183.962 36.2764C181.652 37.7864 179.162 39.0264 176.762 40.4164C173.132 42.5264 169.522 44.6864 165.892 46.7964C162.982 48.4864 160.032 50.0964 157.132 51.7864C154.602 53.2564 152.182 54.9364 149.572 56.2564C146.882 57.6164 144.492 59.5564 141.632 60.5764C139.312 61.3964 137.072 60.9164 135.392 59.6664C133.662 58.4664 132.492 56.4964 132.542 54.0364C132.592 51.0064 133.672 48.1264 134.102 45.1364C134.522 42.2464 135.342 39.4164 135.932 36.5464C136.612 33.2564 137.202 29.9464 137.872 26.6464C138.712 22.5264 139.612 18.4264 140.462 14.3064C141.022 11.5964 141.402 8.83643 142.092 6.16643C142.382 5.05643 142.052 4.74642 141.182 4.56642C139.262 4.18642 137.332 3.85642 135.412 3.47642C131.922 2.77642 128.432 2.05641 124.942 1.33641C122.902 0.91641 120.862 0.486411 118.822 0.0564108C118.152 -0.0835892 117.752 -0.0135708 117.602 0.856429C117.232 3.03643 116.712 5.18643 116.282 7.35643C115.622 10.7364 115.102 14.1564 114.312 17.5064C113.342 21.6464 112.612 25.8364 111.752 29.9964C111.072 33.3264 110.392 36.6664 109.732 40.0064C108.742 45.0064 107.332 49.9464 107.772 55.1264C108.022 58.0964 108.362 61.0864 109.332 63.9164C110.052 66.0064 110.822 68.0664 111.922 70.0264C113.572 72.9564 115.622 75.5164 118.112 77.7164C118.982 78.4864 119.862 79.2364 120.802 79.9164C121.742 80.5964 122.742 81.1864 123.742 81.7664C126.622 83.4264 129.702 84.5564 133.002 85.1864C135.212 85.6064 137.412 85.6764 139.622 85.6964C142.622 85.7164 145.552 85.0864 148.452 84.3764C153.492 83.1464 157.732 80.2364 162.152 77.7064C165.102 76.0164 168.052 74.3164 170.992 72.6064C174.662 70.4664 178.402 68.4464 182.012 66.2064C184.942 64.3964 188.012 62.8164 191.012 61.1064C192.932 60.0164 194.802 58.8264 196.752 57.7864C197.522 57.3764 197.472 56.9764 197.122 56.3764L197.172 56.3864Z" fill="#FF15FB"/>
<path d="M177.112 176.436C178.492 174.876 179.872 173.316 181.262 171.756C183.632 169.096 186.002 166.446 188.392 163.796C189.702 162.346 191.062 160.936 192.372 159.486C192.972 158.826 193.052 158.376 192.152 157.656C190.002 155.926 188.052 153.936 185.992 152.086C182.862 149.286 179.692 146.526 176.562 143.726C174.062 141.486 171.612 139.176 169.102 136.936C166.922 134.986 164.572 133.196 162.522 131.126C160.392 128.986 157.812 127.316 155.962 124.916C154.462 122.966 154.232 120.686 154.902 118.696C155.512 116.686 157.022 114.966 159.372 114.246C162.272 113.356 165.342 113.496 168.322 112.986C171.202 112.496 174.142 112.396 177.052 112.066C180.392 111.696 183.722 111.236 187.062 110.856C191.232 110.386 195.422 109.976 199.592 109.506C202.342 109.196 205.082 108.706 207.842 108.546C208.992 108.476 209.182 108.066 209.082 107.186C208.852 105.246 208.572 103.306 208.342 101.366C207.932 97.8264 207.532 94.2864 207.142 90.7464C206.912 88.6764 206.692 86.6064 206.472 84.5264C206.402 83.8364 206.202 83.4864 205.342 83.6164C203.162 83.9364 200.952 84.1064 198.752 84.3664C195.332 84.7864 191.922 85.3464 188.482 85.6364C184.242 85.9964 180.042 86.5864 175.812 87.0664C172.432 87.4464 169.052 87.8364 165.672 88.2364C160.602 88.8364 155.472 89.0264 150.692 91.0464C147.942 92.2064 145.212 93.4464 142.812 95.2564C141.052 96.5864 139.322 97.9564 137.802 99.6064C135.522 102.086 133.722 104.816 132.402 107.876C131.942 108.936 131.492 110.006 131.142 111.116C130.792 112.226 130.532 113.356 130.292 114.486C129.602 117.746 129.482 121.016 129.902 124.356C130.182 126.596 130.792 128.706 131.462 130.806C132.372 133.666 133.882 136.256 135.442 138.796C138.172 143.216 142.242 146.336 146.022 149.766C148.542 152.056 151.072 154.326 153.612 156.596C156.782 159.426 159.862 162.356 163.112 165.106C165.742 167.336 168.192 169.766 170.742 172.086C172.372 173.576 174.082 174.986 175.672 176.516C176.302 177.126 176.672 176.946 177.122 176.426L177.112 176.436Z" fill="#FF15FB"/>
<path d="M91.0903 268.24C91.0603 274.33 89.4503 278.78 86.2403 281.58C83.0303 284.38 78.2803 286.18 71.7503 286.16C58.6103 286.1 51.9503 279.85 52.0003 268.23L52.1503 233.37C52.1503 232.61 52.9103 232 53.8403 232L58.3703 232.02C59.3003 232.02 60.0503 232.64 60.0503 233.4L59.9103 267.7C59.8703 276.11 63.8803 279.13 71.7503 279.16C75.7003 279.18 78.4003 278.64 80.2503 276.66C82.1103 274.68 83.1603 272.2 83.1803 267.72L83.3203 233.49C83.3203 232.73 84.0803 232.12 85.0103 232.12L89.5403 232.14C90.4703 232.14 91.2203 232.76 91.2203 233.52L91.0703 268.23L91.0903 268.24Z" fill="white"/>
<path d="M0.151042 246.563C0.171181 240.443 1.90313 235.968 5.33683 233.166C8.77052 230.355 13.9764 228.969 20.9647 229.001C35.0317 229.063 42.0401 234.924 41.9998 246.604L41.8589 281.625C41.8589 282.39 41.0432 283 40.0463 283L35.1929 282.979C34.196 282.979 33.3904 282.349 33.3904 281.594V247.379C33.1714 245.921 34.2262 242.211 29.6949 238.076C28.0032 236.939 23.9385 236.009 20.9647 236.009C17.6115 236.009 12.9536 236.685 11.5698 238.076C9.58615 240.071 8.62955 242.604 8.60941 247.1L8.46844 281.491C8.46844 282.256 7.65281 282.866 6.65593 282.866L1.80244 282.845C0.805559 282.845 0 282.214 0 281.46L0.140972 246.583L0.151042 246.563Z" fill="white"/>
<path d="M195.941 229.01C189.071 228.98 183.951 230.37 180.571 233.16C177.191 235.95 175.491 240.4 175.461 246.5L175.311 281.21C175.311 281.97 176.101 282.59 177.081 282.59L181.861 282.61C182.841 282.61 183.641 282 183.641 281.24L183.711 264.07L189.161 264.09C189.861 264.09 190.431 263.53 190.431 262.83L190.451 257.12C190.451 256.42 189.891 255.85 189.191 255.85L183.741 255.83L183.781 247.01C183.801 242.53 184.051 240.18 186.001 238.2C187.951 236.22 191.841 235.69 196.001 235.7C204.291 235.73 208.331 238.63 208.291 247.04L208.151 281.34C208.151 282.1 208.941 282.72 209.921 282.72L214.701 282.74C215.681 282.74 216.481 282.13 216.481 281.37L216.631 246.51C216.681 234.89 209.781 229.05 195.941 229V229.01Z" fill="white"/>
<path d="M163.811 232.27L159.781 232.25C158.951 232.25 158.281 232.86 158.281 233.62L158.141 267.85C158.121 272.33 157.291 275.56 155.641 277.54C153.991 279.52 151.381 280.05 147.871 280.03C140.881 280 137.431 276.24 137.461 267.83L137.601 233.53C137.601 232.77 136.941 232.15 136.111 232.15H134.601L132.081 232.13H130.571C129.741 232.13 129.071 232.73 129.071 233.49L128.931 267.72C128.911 272.2 128.081 275.43 126.431 277.41C124.781 279.39 122.171 280.05 118.661 280.03C111.671 280 108.221 276.11 108.251 267.7L108.391 233.4C108.391 232.64 107.731 232.02 106.901 232.02L102.871 232C102.041 232 101.371 232.61 101.371 233.37L101.221 268.23C101.171 279.85 106.981 285.68 118.661 285.73C124.451 285.75 128.781 284.37 131.631 281.57C132.231 280.98 132.761 280.3 133.241 279.56C136.031 283.72 140.901 285.83 147.871 285.86C153.661 285.88 157.991 284.5 160.841 281.7C163.691 278.9 165.131 274.45 165.161 268.36L165.311 233.65C165.311 232.89 164.651 232.27 163.821 232.27H163.811Z" fill="white"/>
<path d="M228.63 239.26C234.501 239.26 239.26 234.501 239.26 228.63C239.26 222.759 234.501 218 228.63 218C222.759 218 218 222.759 218 228.63C218 234.501 222.759 239.26 228.63 239.26Z" stroke="white" stroke-width="3" stroke-miterlimit="10"/>
<path d="M223.02 232.94L225.61 224.59C225.73 224.2 226 224 226.41 224H227.73C228.15 224 228.41 224.2 228.53 224.59L231.12 232.94H228.86L228.34 230.89H225.7L225.18 232.94H223H223.02ZM226.32 228.48L226.13 229.24H227.95L227.76 228.48C227.68 228.17 227.56 227.68 227.4 227.03C227.24 226.38 227.12 225.9 227.05 225.61C226.71 226.95 226.46 227.91 226.32 228.48Z" fill="white"/>
<path d="M232.07 232.94V224H234.22V232.94H232.07Z" fill="white"/>
</svg>
